<mxfile host="app.diagrams.net" modified="2022-12-18T09:20:54.273Z" agent="5.0 (X11)" version="20.6.2" etag="w9guX4n5uFd9SHQP4NOw" type="github">
  <diagram id="xvO-NkfrGhGG1G9QugBE" name="Page-1">
    <mxGraphModel dx="728" dy="664" grid="1" gridSize="10" guides="1" tooltips="1" connect="1" arrows="1" fold="1" page="1" pageScale="1" pageWidth="850" pageHeight="1100" math="0" shadow="0">
      <root>
        <mxCell id="0" />
        <mxCell id="1" parent="0" />
        <mxCell id="wXYGJ-LRbmqttXUs87il-2" value="" style="shape=mxgraph.cisco.servers.unity_server;sketch=0;html=1;pointerEvents=1;dashed=0;fillColor=#036897;strokeColor=#ffffff;strokeWidth=2;verticalLabelPosition=bottom;verticalAlign=top;align=center;outlineConnect=0;" vertex="1" parent="1">
          <mxGeometry x="410" y="321" width="50" height="69" as="geometry" />
        </mxCell>
        <mxCell id="wXYGJ-LRbmqttXUs87il-19" style="edgeStyle=orthogonalEdgeStyle;rounded=0;orthogonalLoop=1;jettySize=auto;html=1;" edge="1" parent="1" source="wXYGJ-LRbmqttXUs87il-3" target="wXYGJ-LRbmqttXUs87il-18">
          <mxGeometry relative="1" as="geometry" />
        </mxCell>
        <mxCell id="wXYGJ-LRbmqttXUs87il-3" value="" style="shape=mxgraph.cisco.servers.unity_server;sketch=0;html=1;pointerEvents=1;dashed=0;fillColor=#036897;strokeColor=#ffffff;strokeWidth=2;verticalLabelPosition=bottom;verticalAlign=top;align=center;outlineConnect=0;" vertex="1" parent="1">
          <mxGeometry x="560" y="321" width="50" height="69" as="geometry" />
        </mxCell>
        <mxCell id="wXYGJ-LRbmqttXUs87il-21" style="edgeStyle=orthogonalEdgeStyle;rounded=0;orthogonalLoop=1;jettySize=auto;html=1;" edge="1" parent="1" source="wXYGJ-LRbmqttXUs87il-6" target="wXYGJ-LRbmqttXUs87il-2">
          <mxGeometry relative="1" as="geometry" />
        </mxCell>
        <mxCell id="wXYGJ-LRbmqttXUs87il-6" value="" style="shape=mxgraph.cisco.computers_and_peripherals.pc;sketch=0;html=1;pointerEvents=1;dashed=0;fillColor=#036897;strokeColor=#ffffff;strokeWidth=2;verticalLabelPosition=bottom;verticalAlign=top;align=center;outlineConnect=0;" vertex="1" parent="1">
          <mxGeometry x="275" y="350" width="78" height="70" as="geometry" />
        </mxCell>
        <mxCell id="wXYGJ-LRbmqttXUs87il-7" value="Client 1" style="text;html=1;align=center;verticalAlign=middle;resizable=0;points=[];autosize=1;strokeColor=none;fillColor=none;" vertex="1" parent="1">
          <mxGeometry x="40" y="470" width="60" height="30" as="geometry" />
        </mxCell>
        <mxCell id="wXYGJ-LRbmqttXUs87il-20" style="edgeStyle=orthogonalEdgeStyle;rounded=0;orthogonalLoop=1;jettySize=auto;html=1;entryX=0.5;entryY=0;entryDx=0;entryDy=0;entryPerimeter=0;" edge="1" parent="1" source="wXYGJ-LRbmqttXUs87il-8" target="wXYGJ-LRbmqttXUs87il-2">
          <mxGeometry relative="1" as="geometry" />
        </mxCell>
        <mxCell id="wXYGJ-LRbmqttXUs87il-23" style="edgeStyle=orthogonalEdgeStyle;rounded=0;orthogonalLoop=1;jettySize=auto;html=1;" edge="1" parent="1" source="wXYGJ-LRbmqttXUs87il-8">
          <mxGeometry relative="1" as="geometry">
            <mxPoint x="580" y="200" as="targetPoint" />
            <Array as="points">
              <mxPoint x="314" y="230" />
              <mxPoint x="314" y="230" />
            </Array>
          </mxGeometry>
        </mxCell>
        <mxCell id="wXYGJ-LRbmqttXUs87il-8" value="" style="shape=mxgraph.cisco.computers_and_peripherals.pc;sketch=0;html=1;pointerEvents=1;dashed=0;fillColor=#036897;strokeColor=#ffffff;strokeWidth=2;verticalLabelPosition=bottom;verticalAlign=top;align=center;outlineConnect=0;" vertex="1" parent="1">
          <mxGeometry x="275" y="259" width="78" height="70" as="geometry" />
        </mxCell>
        <mxCell id="wXYGJ-LRbmqttXUs87il-9" value="Client 2" style="text;html=1;align=center;verticalAlign=middle;resizable=0;points=[];autosize=1;strokeColor=none;fillColor=none;" vertex="1" parent="1">
          <mxGeometry x="154" y="470" width="60" height="30" as="geometry" />
        </mxCell>
        <mxCell id="wXYGJ-LRbmqttXUs87il-10" value="..." style="text;html=1;align=center;verticalAlign=middle;resizable=0;points=[];autosize=1;strokeColor=none;fillColor=none;" vertex="1" parent="1">
          <mxGeometry x="245" y="405" width="30" height="30" as="geometry" />
        </mxCell>
        <mxCell id="wXYGJ-LRbmqttXUs87il-18" value="" style="shape=mxgraph.cisco.storage.relational_database;sketch=0;html=1;pointerEvents=1;dashed=0;fillColor=#036897;strokeColor=#ffffff;strokeWidth=2;verticalLabelPosition=bottom;verticalAlign=top;align=center;outlineConnect=0;" vertex="1" parent="1">
          <mxGeometry x="660" y="329" width="66" height="53" as="geometry" />
        </mxCell>
      </root>
    </mxGraphModel>
  </diagram>
</mxfile>
